<svg width="24" height="24" viewBox="0 0 24 24" fill="none" xmlns="http://www.w3.org/2000/svg">
<path d="M6.52832 9.08496C7.30781 8.30552 8.57701 8.30547 9.35645 9.08496C9.39341 9.12218 9.39357 9.18261 9.35645 9.21973C9.33789 9.23829 9.31417 9.24706 9.28906 9.24707C9.26411 9.24707 9.24042 9.23837 9.22168 9.21973C8.51588 8.51392 7.36897 8.5139 6.66309 9.21973C6.62612 9.2567 6.56564 9.25652 6.52832 9.21973C6.4911 9.18251 6.49118 9.1221 6.52832 9.08496Z" fill="#2D2D2D" stroke="#8F92A1"/>
<path d="M14.6484 9.08496C15.4279 8.30548 16.6971 8.30549 17.4766 9.08496C17.5135 9.12218 17.5137 9.18261 17.4766 9.21973C17.458 9.23829 17.4343 9.24706 17.4092 9.24707C17.3842 9.24707 17.3605 9.23837 17.3418 9.21973C16.6359 8.51385 15.489 8.5139 14.7832 9.21973C14.7462 9.2567 14.6858 9.25652 14.6484 9.21973C14.6112 9.18251 14.6113 9.1221 14.6484 9.08496Z" fill="#2D2D2D" stroke="#8F92A1"/>
<circle cx="12" cy="12" r="9.25" stroke="#8F92A1" stroke-width="1.5"/>
<path d="M7 13H17C17 14.6667 15.6646 18 12 18C8.33538 18 7 14.6667 7 13Z" stroke="#8F92A1" stroke-width="1.5" stroke-linecap="round" stroke-linejoin="round"/>
</svg>
